# xmcd CD database file
#
# Track frame offsets:
#	150
#	14305
#	27974
#	41347
#	55565
#	78719
#	91605
#	106581
#	119797
#	132368
#	143988
#	157786
#	172341
#	185779
#	197165
#	210233
#	225988
#
# Disc length: 3178 seconds
#
# Revision: 0
# Processed by: cddbd v1.5.1PL2 Copyright (c) Steve Scherf et al.
# Submitted via: CDex 1.51
#
DISCID=da0c6811
DTITLE=Lionel Hampton - Air Mail Special
DYEAR=1900
DGENRE=Jazz
TTITLE0=I Can't Believe That You Are In Love Whith Me
TTITLE1=Cool Train
TTITLE2=Gladysee Bounce
TTITLE3=Air Mail Special
TTITLE4=Gates Steps Out
TTITLE5=A Kiss Was Just A Kiss
TTITLE6=Alone
TTITLE7=Love You Like Mad
TTITLE8=Cryin'
TTITLE9=Helpless
TTITLE10=Jumpin' With G.H.
TTITLE11=Sampson's Boogie
TTITLE12=Gabby's Gabbin'
TTITLE13=Don't  Flee The Scene Salty 
TTITLE14=Kingfish
TTITLE15=Oh, Lady Be Good
TTITLE16=Oh, Rock
EXTD=
EXTT0=
EXTT1=
EXTT2=
EXTT3=
EXTT4=
EXTT5=
EXTT6=
EXTT7=
EXTT8=
EXTT9=
EXTT10=
EXTT11=
EXTT12=
EXTT13=
EXTT14=
EXTT15=
EXTT16=
PLAYORDER=
